<?xml version="1.0" encoding="utf-8"?>
<!-- Svg Vector Icons : http://www.onlinewebfonts.com/icon -->
<!DOCTYPE svg PUBLIC "-//W3C//DTD SVG 1.1//EN" "http://www.w3.org/Graphics/SVG/1.1/DTD/svg11.dtd">
<svg version="1.1" xmlns="http://www.w3.org/2000/svg" xmlns:xlink="http://www.w3.org/1999/xlink" x="0px" y="0px" viewBox="0 0 1000 1000" enable-background="new 0 0 1000 1000" xml:space="preserve">
<metadata> Svg Vector Icons : http://www.onlinewebfonts.com/icon </metadata>
<g><path d="M955.3,312.1c-19.2,0-34.7,15.5-34.7,34.7c0,7.8,2.7,14.9,7,20.7l-50,85.9c-5.7-0.1-12,0.2-19.2,1.2v-75.8c12.5-5.3,21.2-17.6,21.2-32c0-19.1-15.5-34.7-34.7-34.7s-34.7,15.5-34.7,34.7c0,14.4,8.7,26.7,21.2,32v82.1c-33.5,10.2-80.2,33-148.7,79.5c8.5-14.2,34.4-65.8-45-76.8C620.2,351.2,523.3,265.2,406,265.2c-129.7,0-234.8,105.2-234.8,234.8c0,7.9,0.4,15.7,1.2,23.4l0,0c0,0-106.7,45-20.8,92.5c-37.3,18.6-108.7,70.4-108.7,70.4s-83.8,48.8,16.6,48.5h625.4c0,0,65.2,0.3,123.2-84.7c64.3-94.1,151.2-102.5,151.2-141.8c0-29.2-25.7-44.7-52.5-51.2l44.3-76c1.5,0.2,2.9,0.4,4.4,0.4c19.2,0,34.7-15.5,34.7-34.7C990,327.7,974.5,312.1,955.3,312.1z"/><g></g><g></g><g></g><g></g><g></g><g></g><g></g><g></g><g></g><g></g><g></g><g></g><g></g><g></g><g></g></g>
</svg>
